<svg width="673" height="589" viewBox="0 0 673 589" fill="none" xmlns="http://www.w3.org/2000/svg">
<path d="M673 588V588.5H673.5V588H673ZM1 588H0.5V588.5H1V588ZM672.5 0V588H673.5V0H672.5ZM673 587.5H1V588.5H673V587.5ZM1.5 588V0H0.5V588H1.5Z" fill="#D9D5D0"/>
<g clip-path="url(#clip0_1_4753)">
<g clip-path="url(#clip1_1_4753)">
<path d="M-1149.78 48.7109H673.083" stroke="#D9D5D0" stroke-miterlimit="10"/>
<path d="M-1149.78 96.6111H673.083" stroke="#D9D5D0" stroke-miterlimit="10"/>
<path d="M-1149.78 144.532H673.083" stroke="#D9D5D0" stroke-miterlimit="10"/>
<path d="M-1149.78 192.437H673.083" stroke="#D9D5D0" stroke-miterlimit="10"/>
<path d="M-1149.78 240.356H673.083" stroke="#D9D5D0" stroke-miterlimit="10"/>
<path d="M-1149.78 288.261H673.083" stroke="#D9D5D0" stroke-miterlimit="10"/>
<path d="M-1149.78 336.183H673.083" stroke="#D9D5D0" stroke-miterlimit="10"/>
<path d="M-1149.78 384.083H673.083" stroke="#D9D5D0" stroke-miterlimit="10"/>
<path d="M-1149.78 432.005H673.083" stroke="#D9D5D0" stroke-miterlimit="10"/>
<path d="M-1149.78 479.911H673.083" stroke="#D9D5D0" stroke-miterlimit="10"/>
<path d="M-1149.78 527.828H673.083" stroke="#D9D5D0" stroke-miterlimit="10"/>
<path d="M-1149.78 575.732H673.083" stroke="#D9D5D0" stroke-miterlimit="10"/>
<path d="M49.3848 913.732V0.789062" stroke="#D9D5D0" stroke-miterlimit="10"/>
<path d="M97.3252 913.732V0.789062" stroke="#D9D5D0" stroke-miterlimit="10"/>
<path d="M145.289 913.732V0.789062" stroke="#D9D5D0" stroke-miterlimit="10"/>
<path d="M193.236 913.732V0.789062" stroke="#D9D5D0" stroke-miterlimit="10"/>
<path d="M241.196 913.732V0.789062" stroke="#D9D5D0" stroke-miterlimit="10"/>
<path d="M289.137 913.732V0.789062" stroke="#D9D5D0" stroke-miterlimit="10"/>
<path d="M337.097 913.732V0.789062" stroke="#D9D5D0" stroke-miterlimit="10"/>
<path d="M385.044 913.732V0.789062" stroke="#D9D5D0" stroke-miterlimit="10"/>
<path d="M433.002 913.732V0.789062" stroke="#D9D5D0" stroke-miterlimit="10"/>
<path d="M480.95 913.732V0.789062" stroke="#D9D5D0" stroke-miterlimit="10"/>
<path d="M528.906 913.732V0.789062" stroke="#D9D5D0" stroke-miterlimit="10"/>
<path d="M576.874 913.732V0.789062" stroke="#D9D5D0" stroke-miterlimit="10"/>
<path d="M624.822 913.732V0.789062" stroke="#D9D5D0" stroke-miterlimit="10"/>
<path d="M-909.692 0.789062L1.74123 911.203" stroke="#D9D5D0" stroke-miterlimit="10"/>
<path d="M-862.053 0.789062L49.3809 911.203" stroke="#D9D5D0" stroke-miterlimit="10"/>
<path d="M-813.793 0.789062L97.6406 911.203" stroke="#D9D5D0" stroke-miterlimit="10"/>
<path d="M-766.149 0.789062L145.284 911.203" stroke="#D9D5D0" stroke-miterlimit="10"/>
<path d="M-717.885 0.789062L193.549 911.203" stroke="#D9D5D0" stroke-miterlimit="10"/>
<path d="M-670.241 0.789062L241.192 911.203" stroke="#D9D5D0" stroke-miterlimit="10"/>
<path d="M-621.983 0.789062L289.45 911.203" stroke="#D9D5D0" stroke-miterlimit="10"/>
<path d="M-574.338 0.789062L337.096 911.203" stroke="#D9D5D0" stroke-miterlimit="10"/>
<path d="M-526.075 0.789062L385.358 911.203" stroke="#D9D5D0" stroke-miterlimit="10"/>
<path d="M-478.43 0.789062L433.004 911.203" stroke="#D9D5D0" stroke-miterlimit="10"/>
<path d="M-430.172 0.789062L481.262 911.203" stroke="#D9D5D0" stroke-miterlimit="10"/>
<path d="M-382.52 0.789062L528.914 911.203" stroke="#D9D5D0" stroke-miterlimit="10"/>
<path d="M-334.256 0.789062L577.178 911.203" stroke="#D9D5D0" stroke-miterlimit="10"/>
<path d="M-286.612 0.789062L624.821 911.203" stroke="#D9D5D0" stroke-miterlimit="10"/>
<path d="M-238.354 0.789062L673.08 911.203" stroke="#D9D5D0" stroke-miterlimit="10"/>
<path d="M-190.712 0.789062L720.722 911.203" stroke="#D9D5D0" stroke-miterlimit="10"/>
<path d="M-142.446 0.789062L768.987 911.203" stroke="#D9D5D0" stroke-miterlimit="10"/>
<path d="M-94.8047 0.789062L816.629 911.203" stroke="#D9D5D0" stroke-miterlimit="10"/>
<path d="M-46.5234 0.789062L864.91 911.203" stroke="#D9D5D0" stroke-miterlimit="10"/>
<path d="M1.41797 0.789062L912.852 911.203" stroke="#D9D5D0" stroke-miterlimit="10"/>
<path d="M49.6797 0.789062L961.113 911.203" stroke="#D9D5D0" stroke-miterlimit="10"/>
<path d="M97.3232 0.789062L1008.76 911.203" stroke="#D9D5D0" stroke-miterlimit="10"/>
<path d="M145.592 0.789062L1057.03 911.203" stroke="#D9D5D0" stroke-miterlimit="10"/>
<path d="M193.231 0.789062L1104.67 911.203" stroke="#D9D5D0" stroke-miterlimit="10"/>
<path d="M241.494 0.789062L1152.93 911.203" stroke="#D9D5D0" stroke-miterlimit="10"/>
<path d="M289.136 0.789062L1200.57 911.203" stroke="#D9D5D0" stroke-miterlimit="10"/>
<path d="M337.418 0.789062L1248.85 911.203" stroke="#D9D5D0" stroke-miterlimit="10"/>
<path d="M385.043 0.789062L1296.48 911.203" stroke="#D9D5D0" stroke-miterlimit="10"/>
<path d="M433.321 0.789062L1344.75 911.203" stroke="#D9D5D0" stroke-miterlimit="10"/>
<path d="M480.951 0.789062L1392.38 911.203" stroke="#D9D5D0" stroke-miterlimit="10"/>
<path d="M529.228 0.789062L1440.66 911.203" stroke="#D9D5D0" stroke-miterlimit="10"/>
<path d="M576.873 0.789062L1488.31 911.203" stroke="#D9D5D0" stroke-miterlimit="10"/>
<path d="M625.131 0.789062L1536.56 911.203" stroke="#D9D5D0" stroke-miterlimit="10"/>
</g>
</g>
<defs>
<clipPath id="clip0_1_4753">
<rect width="672" height="588" fill="white" transform="translate(1)"/>
</clipPath>
<clipPath id="clip1_1_4753">
<rect width="672" height="672" fill="white" transform="translate(1)"/>
</clipPath>
</defs>
</svg>
