<svg width="577" height="673" viewBox="0 0 577 673" fill="none" xmlns="http://www.w3.org/2000/svg">
<g clip-path="url(#clip0_1_5391)">
<path d="M-1245.78 48.7109H577.083" stroke="#D9D5D0" stroke-miterlimit="10"/>
<path d="M-1245.78 96.6111H577.083" stroke="#D9D5D0" stroke-miterlimit="10"/>
<path d="M-1245.78 144.532H577.083" stroke="#D9D5D0" stroke-miterlimit="10"/>
<path d="M-1245.78 192.437H577.083" stroke="#D9D5D0" stroke-miterlimit="10"/>
<path d="M-1245.78 240.356H577.083" stroke="#D9D5D0" stroke-miterlimit="10"/>
<path d="M-1245.78 288.262H577.083" stroke="#D9D5D0" stroke-miterlimit="10"/>
<path d="M-1245.78 336.183H577.083" stroke="#D9D5D0" stroke-miterlimit="10"/>
<path d="M-1245.78 384.083H577.083" stroke="#D9D5D0" stroke-miterlimit="10"/>
<path d="M-1245.78 432.005H577.083" stroke="#D9D5D0" stroke-miterlimit="10"/>
<path d="M-1245.78 479.911H577.083" stroke="#D9D5D0" stroke-miterlimit="10"/>
<path d="M-1245.78 527.828H577.083" stroke="#D9D5D0" stroke-miterlimit="10"/>
<path d="M-1245.78 575.732H577.083" stroke="#D9D5D0" stroke-miterlimit="10"/>
<path d="M-1245.78 623.652H577.083" stroke="#D9D5D0" stroke-miterlimit="10"/>
<path d="M1.32471 913.732V0.789124" stroke="#D9D5D0" stroke-miterlimit="10"/>
<path d="M49.2886 913.732V0.789124" stroke="#D9D5D0" stroke-miterlimit="10"/>
<path d="M97.2358 913.732V0.789124" stroke="#D9D5D0" stroke-miterlimit="10"/>
<path d="M145.196 913.732V0.789124" stroke="#D9D5D0" stroke-miterlimit="10"/>
<path d="M193.136 913.732V0.789124" stroke="#D9D5D0" stroke-miterlimit="10"/>
<path d="M241.096 913.732V0.789124" stroke="#D9D5D0" stroke-miterlimit="10"/>
<path d="M289.043 913.732V0.789124" stroke="#D9D5D0" stroke-miterlimit="10"/>
<path d="M337.001 913.732V0.789124" stroke="#D9D5D0" stroke-miterlimit="10"/>
<path d="M384.95 913.732V0.789124" stroke="#D9D5D0" stroke-miterlimit="10"/>
<path d="M432.906 913.732V0.789124" stroke="#D9D5D0" stroke-miterlimit="10"/>
<path d="M480.874 913.732V0.789124" stroke="#D9D5D0" stroke-miterlimit="10"/>
<path d="M528.822 913.732V0.789124" stroke="#D9D5D0" stroke-miterlimit="10"/>
<path d="M-909.793 0.789124L1.64064 911.203" stroke="#D9D5D0" stroke-miterlimit="10"/>
<path d="M-862.149 0.789124L49.2842 911.203" stroke="#D9D5D0" stroke-miterlimit="10"/>
<path d="M-813.885 0.789124L97.5488 911.203" stroke="#D9D5D0" stroke-miterlimit="10"/>
<path d="M-766.241 0.789001L145.192 911.203" stroke="#D9D5D0" stroke-miterlimit="10"/>
<path d="M-717.983 0.789124L193.45 911.203" stroke="#D9D5D0" stroke-miterlimit="10"/>
<path d="M-670.338 0.789124L241.096 911.203" stroke="#D9D5D0" stroke-miterlimit="10"/>
<path d="M-622.075 0.789124L289.358 911.203" stroke="#D9D5D0" stroke-miterlimit="10"/>
<path d="M-574.43 0.789124L337.004 911.203" stroke="#D9D5D0" stroke-miterlimit="10"/>
<path d="M-526.172 0.789001L385.262 911.203" stroke="#D9D5D0" stroke-miterlimit="10"/>
<path d="M-478.52 0.789124L432.914 911.203" stroke="#D9D5D0" stroke-miterlimit="10"/>
<path d="M-430.256 0.789124L481.178 911.203" stroke="#D9D5D0" stroke-miterlimit="10"/>
<path d="M-382.612 0.789001L528.821 911.203" stroke="#D9D5D0" stroke-miterlimit="10"/>
<path d="M-334.354 0.789124L577.08 911.203" stroke="#D9D5D0" stroke-miterlimit="10"/>
<path d="M-286.712 0.789001L624.722 911.203" stroke="#D9D5D0" stroke-miterlimit="10"/>
<path d="M-238.446 0.789124L672.987 911.203" stroke="#D9D5D0" stroke-miterlimit="10"/>
<path d="M-190.805 0.789124L720.629 911.203" stroke="#D9D5D0" stroke-miterlimit="10"/>
<path d="M-142.523 0.789124L768.91 911.203" stroke="#D9D5D0" stroke-miterlimit="10"/>
<path d="M-94.582 0.789124L816.852 911.203" stroke="#D9D5D0" stroke-miterlimit="10"/>
<path d="M-46.3203 0.789001L865.113 911.203" stroke="#D9D5D0" stroke-miterlimit="10"/>
<path d="M1.32324 0.789124L912.757 911.203" stroke="#D9D5D0" stroke-miterlimit="10"/>
<path d="M49.5918 0.789124L961.025 911.203" stroke="#D9D5D0" stroke-miterlimit="10"/>
<path d="M97.2314 0.789124L1008.67 911.203" stroke="#D9D5D0" stroke-miterlimit="10"/>
<path d="M145.494 0.789124L1056.93 911.203" stroke="#D9D5D0" stroke-miterlimit="10"/>
<path d="M193.136 0.789001L1104.57 911.203" stroke="#D9D5D0" stroke-miterlimit="10"/>
<path d="M241.418 0.789124L1152.85 911.203" stroke="#D9D5D0" stroke-miterlimit="10"/>
<path d="M289.043 0.789124L1200.48 911.203" stroke="#D9D5D0" stroke-miterlimit="10"/>
<path d="M337.321 0.789124L1248.75 911.203" stroke="#D9D5D0" stroke-miterlimit="10"/>
<path d="M384.951 0.789124L1296.38 911.203" stroke="#D9D5D0" stroke-miterlimit="10"/>
<path d="M433.228 0.789124L1344.66 911.203" stroke="#D9D5D0" stroke-miterlimit="10"/>
<path d="M480.873 0.789124L1392.31 911.203" stroke="#D9D5D0" stroke-miterlimit="10"/>
<path d="M529.131 0.789124L1440.56 911.203" stroke="#D9D5D0" stroke-miterlimit="10"/>
</g>
<rect x="-95" width="672" height="672" stroke="#D9D5D0"/>
<defs>
<clipPath id="clip0_1_5391">
<rect x="-95" width="672" height="672" fill="white"/>
</clipPath>
</defs>
</svg>
