<svg width="222" height="28" viewBox="0 0 222 28" fill="none" xmlns="http://www.w3.org/2000/svg">
<g clip-path="url(#clip0_387_2162)">
<path d="M9.05725 3.93035L0 3.92646V0.442017L21.9646 0.453683L21.9626 3.93618L12.9054 3.93229L12.8938 27.3998H9.0457L9.05725 3.93035Z" fill="#181A1C"/>
<path d="M45.1487 12.6961C48.7601 12.6981 50.5581 11.1231 50.56 8.26279C50.56 5.42196 48.7659 3.84307 45.1526 3.84112H40.4151L40.4112 12.6942H45.1487V12.6961ZM36.5708 0.463623L45.4279 0.467512C51.817 0.471401 54.6834 3.75362 54.6815 8.24723C54.6795 12.0797 52.4273 15.012 47.9612 15.815L56.9954 27.4253H52.2752L43.549 16.0153H40.4093L40.4035 27.4175H36.5554L36.5689 0.463623H36.5708Z" fill="#181A1C"/>
<path d="M75.2185 0.483032H71.3704V27.435H75.2185V0.483032Z" fill="#181A1C"/>
<path d="M91.7781 0.492188L95.6262 0.494132L95.6127 23.9616L108.501 23.9675L108.499 27.4519L91.7627 27.4441L91.7781 0.492188Z" fill="#181A1C"/>
<path d="M143.824 13.9956C143.828 8.01841 139.872 3.5248 133.954 3.52091C128.037 3.51897 124.096 8.00869 124.092 13.9859C124.089 19.9631 128.025 24.4567 133.943 24.4606C139.86 24.4645 143.82 19.9729 143.822 13.9976M119.971 13.9859C119.977 6.0273 125.734 -0.00242217 133.956 0.00146672C142.178 0.00535561 147.947 6.04091 147.943 13.9995C147.94 21.9562 142.165 27.984 133.941 27.9801C125.717 27.9762 119.967 21.9406 119.971 13.984" fill="#181A1C"/>
<path d="M160.607 14.0064C160.611 6.04976 166.369 0.0200388 174.59 0.0239277C180.073 0.0258721 184.246 2.46809 186.549 6.06337L183.28 8.16921C181.667 5.38087 178.654 3.54726 174.588 3.54337C168.671 3.54143 164.73 8.04865 164.726 14.0084C164.723 19.9856 168.659 24.5162 174.577 24.5181C179.586 24.52 183.164 21.5898 184.002 16.8959L174.436 16.89V13.4425L188.397 13.4503C188.393 21.9767 182.98 28.0045 174.577 28.0006C166.353 27.9967 160.603 21.9612 160.607 14.0045" fill="#181A1C"/>
<path d="M206.94 15.8808L196.383 0.546875L200.739 0.548819L208.884 12.5266L217.058 0.556597L221.397 0.560486L210.805 15.8827L210.8 27.5066L206.934 27.5047L206.94 15.8808Z" fill="#181A1C"/>
</g>
<defs>
<clipPath id="clip0_387_2162">
<rect width="221.395" height="28" fill="white"/>
</clipPath>
</defs>
</svg>
