<svg width="671" height="1442" viewBox="0 0 671 1442" fill="none" xmlns="http://www.w3.org/2000/svg">
<g clip-path="url(#clip0_1_4991)">
<g clip-path="url(#clip1_1_4991)">
<path d="M-1151.78 49.7109H671.083" stroke="#D9D5D0" stroke-miterlimit="10"/>
<path d="M-1151.78 97.6111H671.083" stroke="#D9D5D0" stroke-miterlimit="10"/>
<path d="M-1151.78 145.532H671.083" stroke="#D9D5D0" stroke-miterlimit="10"/>
<path d="M-1151.78 193.437H671.083" stroke="#D9D5D0" stroke-miterlimit="10"/>
<path d="M-1151.78 241.356H671.083" stroke="#D9D5D0" stroke-miterlimit="10"/>
<path d="M-1151.78 289.262H671.083" stroke="#D9D5D0" stroke-miterlimit="10"/>
<path d="M-1151.78 337.183H671.083" stroke="#D9D5D0" stroke-miterlimit="10"/>
<path d="M-1151.78 385.083H671.083" stroke="#D9D5D0" stroke-miterlimit="10"/>
<path d="M-1151.78 433.005H671.083" stroke="#D9D5D0" stroke-miterlimit="10"/>
<path d="M-1151.78 480.911H671.083" stroke="#D9D5D0" stroke-miterlimit="10"/>
<path d="M-1151.78 528.828H671.083" stroke="#D9D5D0" stroke-miterlimit="10"/>
<path d="M-1151.78 576.732H671.083" stroke="#D9D5D0" stroke-miterlimit="10"/>
<path d="M-1151.78 624.652H671.083" stroke="#D9D5D0" stroke-miterlimit="10"/>
<path d="M47.3848 914.732V1.78912" stroke="#D9D5D0" stroke-miterlimit="10"/>
<path d="M95.3252 914.732V1.78912" stroke="#D9D5D0" stroke-miterlimit="10"/>
<path d="M143.289 914.732V1.78912" stroke="#D9D5D0" stroke-miterlimit="10"/>
<path d="M191.236 914.732V1.78912" stroke="#D9D5D0" stroke-miterlimit="10"/>
<path d="M239.196 914.732V1.78912" stroke="#D9D5D0" stroke-miterlimit="10"/>
<path d="M287.137 914.732V1.78912" stroke="#D9D5D0" stroke-miterlimit="10"/>
<path d="M335.097 914.732V1.78912" stroke="#D9D5D0" stroke-miterlimit="10"/>
<path d="M383.044 914.732V1.78912" stroke="#D9D5D0" stroke-miterlimit="10"/>
<path d="M431.002 914.732V1.78912" stroke="#D9D5D0" stroke-miterlimit="10"/>
<path d="M478.95 914.732V1.78912" stroke="#D9D5D0" stroke-miterlimit="10"/>
<path d="M526.906 914.732V1.78912" stroke="#D9D5D0" stroke-miterlimit="10"/>
<path d="M574.874 914.732V1.78912" stroke="#D9D5D0" stroke-miterlimit="10"/>
<path d="M622.822 914.732V1.78912" stroke="#D9D5D0" stroke-miterlimit="10"/>
<path d="M-864.053 1.78912L47.3809 912.203" stroke="#D9D5D0" stroke-miterlimit="10"/>
<path d="M-815.793 1.78912L95.6406 912.203" stroke="#D9D5D0" stroke-miterlimit="10"/>
<path d="M-768.149 1.78912L143.284 912.203" stroke="#D9D5D0" stroke-miterlimit="10"/>
<path d="M-719.885 1.78912L191.549 912.203" stroke="#D9D5D0" stroke-miterlimit="10"/>
<path d="M-672.241 1.78903L239.192 912.203" stroke="#D9D5D0" stroke-miterlimit="10"/>
<path d="M-623.983 1.78912L287.45 912.203" stroke="#D9D5D0" stroke-miterlimit="10"/>
<path d="M-576.338 1.78912L335.096 912.203" stroke="#D9D5D0" stroke-miterlimit="10"/>
<path d="M-528.075 1.78912L383.358 912.203" stroke="#D9D5D0" stroke-miterlimit="10"/>
<path d="M-480.43 1.78912L431.004 912.203" stroke="#D9D5D0" stroke-miterlimit="10"/>
<path d="M-432.172 1.789L479.262 912.203" stroke="#D9D5D0" stroke-miterlimit="10"/>
<path d="M-384.52 1.78912L526.914 912.203" stroke="#D9D5D0" stroke-miterlimit="10"/>
<path d="M-336.256 1.78912L575.178 912.203" stroke="#D9D5D0" stroke-miterlimit="10"/>
<path d="M-288.612 1.789L622.821 912.203" stroke="#D9D5D0" stroke-miterlimit="10"/>
<path d="M-240.354 1.78912L671.08 912.203" stroke="#D9D5D0" stroke-miterlimit="10"/>
<path d="M-192.712 1.789L718.722 912.203" stroke="#D9D5D0" stroke-miterlimit="10"/>
<path d="M-144.446 1.78912L766.987 912.203" stroke="#D9D5D0" stroke-miterlimit="10"/>
<path d="M-96.8047 1.78912L814.629 912.203" stroke="#D9D5D0" stroke-miterlimit="10"/>
<path d="M-48.5234 1.78912L862.91 912.203" stroke="#D9D5D0" stroke-miterlimit="10"/>
<path d="M-0.582031 1.78912L910.852 912.203" stroke="#D9D5D0" stroke-miterlimit="10"/>
<path d="M47.6797 1.789L959.113 912.203" stroke="#D9D5D0" stroke-miterlimit="10"/>
<path d="M95.3232 1.78912L1006.76 912.203" stroke="#D9D5D0" stroke-miterlimit="10"/>
<path d="M143.592 1.78912L1055.03 912.203" stroke="#D9D5D0" stroke-miterlimit="10"/>
<path d="M191.231 1.78912L1102.67 912.203" stroke="#D9D5D0" stroke-miterlimit="10"/>
<path d="M239.494 1.78912L1150.93 912.203" stroke="#D9D5D0" stroke-miterlimit="10"/>
<path d="M287.136 1.789L1198.57 912.203" stroke="#D9D5D0" stroke-miterlimit="10"/>
<path d="M335.418 1.78912L1246.85 912.203" stroke="#D9D5D0" stroke-miterlimit="10"/>
<path d="M383.043 1.78912L1294.48 912.203" stroke="#D9D5D0" stroke-miterlimit="10"/>
<path d="M431.321 1.78912L1342.75 912.203" stroke="#D9D5D0" stroke-miterlimit="10"/>
<path d="M478.951 1.78912L1390.38 912.203" stroke="#D9D5D0" stroke-miterlimit="10"/>
<path d="M527.228 1.78912L1438.66 912.203" stroke="#D9D5D0" stroke-miterlimit="10"/>
<path d="M574.873 1.78912L1486.31 912.203" stroke="#D9D5D0" stroke-miterlimit="10"/>
<path d="M623.131 1.78912L1534.56 912.203" stroke="#D9D5D0" stroke-miterlimit="10"/>
</g>
<rect x="-193" y="1" width="864" height="672" stroke="#D9D5D0"/>
<g clip-path="url(#clip2_1_4991)">
<path d="M-1151.78 721.711H671.083" stroke="#D9D5D0" stroke-miterlimit="10"/>
<path d="M-1151.78 769.611H671.083" stroke="#D9D5D0" stroke-miterlimit="10"/>
<path d="M-1151.78 817.532H671.083" stroke="#D9D5D0" stroke-miterlimit="10"/>
<path d="M-1151.78 865.437H671.083" stroke="#D9D5D0" stroke-miterlimit="10"/>
<path d="M-1151.78 913.356H671.083" stroke="#D9D5D0" stroke-miterlimit="10"/>
<path d="M-1151.78 961.261H671.083" stroke="#D9D5D0" stroke-miterlimit="10"/>
<path d="M-1151.78 1009.18H671.083" stroke="#D9D5D0" stroke-miterlimit="10"/>
<path d="M-1151.78 1057.08H671.083" stroke="#D9D5D0" stroke-miterlimit="10"/>
<path d="M-1151.78 1105H671.083" stroke="#D9D5D0" stroke-miterlimit="10"/>
<path d="M-1151.78 1152.91H671.083" stroke="#D9D5D0" stroke-miterlimit="10"/>
<path d="M-1151.78 1200.83H671.083" stroke="#D9D5D0" stroke-miterlimit="10"/>
<path d="M-1151.78 1248.73H671.083" stroke="#D9D5D0" stroke-miterlimit="10"/>
<path d="M-1151.78 1296.65H671.083" stroke="#D9D5D0" stroke-miterlimit="10"/>
<path d="M47.3848 1586.73V673.789" stroke="#D9D5D0" stroke-miterlimit="10"/>
<path d="M95.3252 1586.73V673.789" stroke="#D9D5D0" stroke-miterlimit="10"/>
<path d="M143.289 1586.73V673.789" stroke="#D9D5D0" stroke-miterlimit="10"/>
<path d="M191.236 1586.73V673.789" stroke="#D9D5D0" stroke-miterlimit="10"/>
<path d="M239.196 1586.73V673.789" stroke="#D9D5D0" stroke-miterlimit="10"/>
<path d="M287.137 1586.73V673.789" stroke="#D9D5D0" stroke-miterlimit="10"/>
<path d="M335.097 1586.73V673.789" stroke="#D9D5D0" stroke-miterlimit="10"/>
<path d="M383.044 1586.73V673.789" stroke="#D9D5D0" stroke-miterlimit="10"/>
<path d="M431.002 1586.73V673.789" stroke="#D9D5D0" stroke-miterlimit="10"/>
<path d="M478.95 1586.73V673.789" stroke="#D9D5D0" stroke-miterlimit="10"/>
<path d="M526.906 1586.73V673.789" stroke="#D9D5D0" stroke-miterlimit="10"/>
<path d="M574.874 1586.73V673.789" stroke="#D9D5D0" stroke-miterlimit="10"/>
<path d="M622.822 1586.73V673.789" stroke="#D9D5D0" stroke-miterlimit="10"/>
<path d="M-864.053 673.789L47.3809 1584.2" stroke="#D9D5D0" stroke-miterlimit="10"/>
<path d="M-815.793 673.789L95.6406 1584.2" stroke="#D9D5D0" stroke-miterlimit="10"/>
<path d="M-768.149 673.789L143.284 1584.2" stroke="#D9D5D0" stroke-miterlimit="10"/>
<path d="M-719.885 673.789L191.549 1584.2" stroke="#D9D5D0" stroke-miterlimit="10"/>
<path d="M-672.241 673.789L239.192 1584.2" stroke="#D9D5D0" stroke-miterlimit="10"/>
<path d="M-623.983 673.789L287.45 1584.2" stroke="#D9D5D0" stroke-miterlimit="10"/>
<path d="M-576.338 673.789L335.096 1584.2" stroke="#D9D5D0" stroke-miterlimit="10"/>
<path d="M-528.075 673.789L383.358 1584.2" stroke="#D9D5D0" stroke-miterlimit="10"/>
<path d="M-480.43 673.789L431.004 1584.2" stroke="#D9D5D0" stroke-miterlimit="10"/>
<path d="M-432.172 673.789L479.262 1584.2" stroke="#D9D5D0" stroke-miterlimit="10"/>
<path d="M-384.52 673.789L526.914 1584.2" stroke="#D9D5D0" stroke-miterlimit="10"/>
<path d="M-336.256 673.789L575.178 1584.2" stroke="#D9D5D0" stroke-miterlimit="10"/>
<path d="M-288.612 673.789L622.821 1584.2" stroke="#D9D5D0" stroke-miterlimit="10"/>
<path d="M-240.354 673.789L671.08 1584.2" stroke="#D9D5D0" stroke-miterlimit="10"/>
<path d="M-192.712 673.789L718.722 1584.2" stroke="#D9D5D0" stroke-miterlimit="10"/>
<path d="M-144.446 673.789L766.987 1584.2" stroke="#D9D5D0" stroke-miterlimit="10"/>
<path d="M-96.8047 673.789L814.629 1584.2" stroke="#D9D5D0" stroke-miterlimit="10"/>
<path d="M-48.5234 673.789L862.91 1584.2" stroke="#D9D5D0" stroke-miterlimit="10"/>
<path d="M-0.582031 673.789L910.852 1584.2" stroke="#D9D5D0" stroke-miterlimit="10"/>
<path d="M47.6797 673.789L959.113 1584.2" stroke="#D9D5D0" stroke-miterlimit="10"/>
<path d="M95.3232 673.789L1006.76 1584.2" stroke="#D9D5D0" stroke-miterlimit="10"/>
<path d="M143.592 673.789L1055.03 1584.2" stroke="#D9D5D0" stroke-miterlimit="10"/>
<path d="M191.231 673.789L1102.67 1584.2" stroke="#D9D5D0" stroke-miterlimit="10"/>
<path d="M239.494 673.789L1150.93 1584.2" stroke="#D9D5D0" stroke-miterlimit="10"/>
<path d="M287.136 673.789L1198.57 1584.2" stroke="#D9D5D0" stroke-miterlimit="10"/>
<path d="M335.418 673.789L1246.85 1584.2" stroke="#D9D5D0" stroke-miterlimit="10"/>
<path d="M383.043 673.789L1294.48 1584.2" stroke="#D9D5D0" stroke-miterlimit="10"/>
<path d="M431.321 673.789L1342.75 1584.2" stroke="#D9D5D0" stroke-miterlimit="10"/>
<path d="M478.951 673.789L1390.38 1584.2" stroke="#D9D5D0" stroke-miterlimit="10"/>
<path d="M527.228 673.789L1438.66 1584.2" stroke="#D9D5D0" stroke-miterlimit="10"/>
<path d="M574.873 673.789L1486.31 1584.2" stroke="#D9D5D0" stroke-miterlimit="10"/>
<path d="M623.131 673.789L1534.56 1584.2" stroke="#D9D5D0" stroke-miterlimit="10"/>
</g>
<rect x="-193" y="673" width="864" height="672" stroke="#D9D5D0"/>
<g clip-path="url(#clip3_1_4991)">
<path d="M-1151.78 1393.71H671.083" stroke="#D9D5D0" stroke-miterlimit="10"/>
<path d="M47.3848 2258.73V1345.79" stroke="#D9D5D0" stroke-miterlimit="10"/>
<path d="M95.3252 2258.73V1345.79" stroke="#D9D5D0" stroke-miterlimit="10"/>
<path d="M143.289 2258.73V1345.79" stroke="#D9D5D0" stroke-miterlimit="10"/>
<path d="M191.236 2258.73V1345.79" stroke="#D9D5D0" stroke-miterlimit="10"/>
<path d="M239.196 2258.73V1345.79" stroke="#D9D5D0" stroke-miterlimit="10"/>
<path d="M287.137 2258.73V1345.79" stroke="#D9D5D0" stroke-miterlimit="10"/>
<path d="M335.097 2258.73V1345.79" stroke="#D9D5D0" stroke-miterlimit="10"/>
<path d="M383.044 2258.73V1345.79" stroke="#D9D5D0" stroke-miterlimit="10"/>
<path d="M431.002 2258.73V1345.79" stroke="#D9D5D0" stroke-miterlimit="10"/>
<path d="M478.95 2258.73V1345.79" stroke="#D9D5D0" stroke-miterlimit="10"/>
<path d="M526.906 2258.73V1345.79" stroke="#D9D5D0" stroke-miterlimit="10"/>
<path d="M574.874 2258.73V1345.79" stroke="#D9D5D0" stroke-miterlimit="10"/>
<path d="M622.822 2258.73V1345.79" stroke="#D9D5D0" stroke-miterlimit="10"/>
<path d="M-864.053 1345.79L47.3809 2256.2" stroke="#D9D5D0" stroke-miterlimit="10"/>
<path d="M-815.793 1345.79L95.6406 2256.2" stroke="#D9D5D0" stroke-miterlimit="10"/>
<path d="M-768.149 1345.79L143.284 2256.2" stroke="#D9D5D0" stroke-miterlimit="10"/>
<path d="M-719.885 1345.79L191.549 2256.2" stroke="#D9D5D0" stroke-miterlimit="10"/>
<path d="M-672.241 1345.79L239.192 2256.2" stroke="#D9D5D0" stroke-miterlimit="10"/>
<path d="M-623.983 1345.79L287.45 2256.2" stroke="#D9D5D0" stroke-miterlimit="10"/>
<path d="M-576.338 1345.79L335.096 2256.2" stroke="#D9D5D0" stroke-miterlimit="10"/>
<path d="M-528.075 1345.79L383.358 2256.2" stroke="#D9D5D0" stroke-miterlimit="10"/>
<path d="M-480.43 1345.79L431.004 2256.2" stroke="#D9D5D0" stroke-miterlimit="10"/>
<path d="M-432.172 1345.79L479.262 2256.2" stroke="#D9D5D0" stroke-miterlimit="10"/>
<path d="M-384.52 1345.79L526.914 2256.2" stroke="#D9D5D0" stroke-miterlimit="10"/>
<path d="M-336.256 1345.79L575.178 2256.2" stroke="#D9D5D0" stroke-miterlimit="10"/>
<path d="M-288.612 1345.79L622.821 2256.2" stroke="#D9D5D0" stroke-miterlimit="10"/>
<path d="M-240.354 1345.79L671.08 2256.2" stroke="#D9D5D0" stroke-miterlimit="10"/>
<path d="M-192.712 1345.79L718.722 2256.2" stroke="#D9D5D0" stroke-miterlimit="10"/>
<path d="M-144.446 1345.79L766.987 2256.2" stroke="#D9D5D0" stroke-miterlimit="10"/>
<path d="M-96.8047 1345.79L814.629 2256.2" stroke="#D9D5D0" stroke-miterlimit="10"/>
<path d="M-48.5234 1345.79L862.91 2256.2" stroke="#D9D5D0" stroke-miterlimit="10"/>
<path d="M-0.582031 1345.79L910.852 2256.2" stroke="#D9D5D0" stroke-miterlimit="10"/>
<path d="M47.6797 1345.79L959.113 2256.2" stroke="#D9D5D0" stroke-miterlimit="10"/>
<path d="M95.3232 1345.79L1006.76 2256.2" stroke="#D9D5D0" stroke-miterlimit="10"/>
<path d="M143.592 1345.79L1055.03 2256.2" stroke="#D9D5D0" stroke-miterlimit="10"/>
<path d="M191.231 1345.79L1102.67 2256.2" stroke="#D9D5D0" stroke-miterlimit="10"/>
<path d="M239.494 1345.79L1150.93 2256.2" stroke="#D9D5D0" stroke-miterlimit="10"/>
<path d="M287.136 1345.79L1198.57 2256.2" stroke="#D9D5D0" stroke-miterlimit="10"/>
<path d="M335.418 1345.79L1246.85 2256.2" stroke="#D9D5D0" stroke-miterlimit="10"/>
<path d="M383.043 1345.79L1294.48 2256.2" stroke="#D9D5D0" stroke-miterlimit="10"/>
<path d="M431.321 1345.79L1342.75 2256.2" stroke="#D9D5D0" stroke-miterlimit="10"/>
<path d="M478.951 1345.79L1390.38 2256.2" stroke="#D9D5D0" stroke-miterlimit="10"/>
<path d="M527.228 1345.79L1438.66 2256.2" stroke="#D9D5D0" stroke-miterlimit="10"/>
<path d="M574.873 1345.79L1486.31 2256.2" stroke="#D9D5D0" stroke-miterlimit="10"/>
<path d="M623.131 1345.79L1534.56 2256.2" stroke="#D9D5D0" stroke-miterlimit="10"/>
</g>
<rect x="-193" y="1345" width="864" height="672" stroke="#D9D5D0"/>
</g>
<rect x="1" y="1" width="670" height="1440" stroke="#D9D5D0"/>
<defs>
<clipPath id="clip0_1_4991">
<rect x="1" y="1" width="670" height="1440" fill="white"/>
</clipPath>
<clipPath id="clip1_1_4991">
<rect x="-193" y="1" width="864" height="672" fill="white"/>
</clipPath>
<clipPath id="clip2_1_4991">
<rect x="-193" y="673" width="864" height="672" fill="white"/>
</clipPath>
<clipPath id="clip3_1_4991">
<rect x="-193" y="1345" width="864" height="672" fill="white"/>
</clipPath>
</defs>
</svg>
