<svg width="127" height="16" viewBox="0 0 127 16" fill="none" xmlns="http://www.w3.org/2000/svg">
<g clip-path="url(#clip0_439_2017)">
<path d="M5.17557 2.24626L0 2.24404V0.25293L12.5512 0.259596L12.5501 2.2496L7.3745 2.24737L7.3679 15.6574H5.16897L5.17557 2.24626Z" fill="#EEECE9"/>
<path d="M25.7991 7.25465C27.8628 7.25576 28.8902 6.35576 28.8913 4.72131C28.8913 3.09798 27.8661 2.19576 25.8013 2.19465H23.0942L23.092 7.25354H25.7991V7.25465ZM20.8975 0.264648L25.9586 0.266871C29.6096 0.269093 31.2475 2.14465 31.2464 4.71243C31.2453 6.90243 29.9583 8.57798 27.4063 9.03687L32.5686 15.6713H29.8714L24.885 9.15131H23.0909L23.0876 15.6669H20.8887L20.8964 0.264648H20.8975Z" fill="#EEECE9"/>
<path d="M42.9821 0.275391H40.7832V15.6765H42.9821V0.275391Z" fill="#EEECE9"/>
<path d="M52.4443 0.281128L54.6433 0.282239L54.6356 13.6922L62.0002 13.6956L61.9991 15.6867L52.4355 15.6822L52.4443 0.281128Z" fill="#EEECE9"/>
<path d="M82.185 7.99667C82.1872 4.58111 79.9266 2.01333 76.5452 2.01111C73.1637 2.01 70.912 4.57556 70.9098 7.99111C70.9076 11.4067 73.1571 13.9744 76.5386 13.9767C79.92 13.9789 82.1828 11.4122 82.1839 7.99778M68.5547 7.99111C68.558 3.44333 71.8481 -0.00222115 76.5463 1.07431e-06C81.2445 0.0022233 84.5412 3.45111 84.539 7.99889C84.5368 12.5456 81.2368 15.99 76.5375 15.9878C71.8382 15.9856 68.5525 12.5367 68.5547 7.99" fill="#EEECE9"/>
<path d="M91.7754 8.0027C91.7776 3.45603 95.0677 0.0104742 99.7659 0.0126964C102.899 0.0138075 105.284 1.40936 106.599 3.46381L104.731 4.66714C103.81 3.07381 102.088 2.02603 99.7648 2.02381C96.3834 2.0227 94.1316 4.59825 94.1294 8.00381C94.1272 11.4194 96.3768 14.0083 99.7582 14.0094C102.62 14.0105 104.665 12.336 105.144 9.65381L99.6779 9.65048V7.68048L107.655 7.68492C107.653 12.5571 104.56 16.0016 99.7582 15.9994C95.0589 15.9971 91.7732 12.5483 91.7754 8.00159" fill="#EEECE9"/>
<path d="M118.251 9.07473L112.219 0.3125L114.708 0.313611L119.362 7.15806L124.033 0.318056L126.512 0.320278L120.46 9.07584L120.457 15.7181L118.248 15.717L118.251 9.07473Z" fill="#EEECE9"/>
</g>
<defs>
<clipPath id="clip0_439_2017">
<rect width="126.512" height="16" fill="white"/>
</clipPath>
</defs>
</svg>
